<svg id="logosandtypes_com" data-name="logosandtypes com" xmlns="http://www.w3.org/2000/svg" xmlns:xlink="http://www.w3.org/1999/xlink" viewBox="0 0 150 150"><defs><style>.cls-1{fill:none;}.cls-2{fill:url(#linear-gradient);}.cls-3{fill:url(#linear-gradient-2);}.cls-4{fill:url(#linear-gradient-3);}.cls-5{fill:url(#linear-gradient-4);}</style><linearGradient id="linear-gradient" x1="-36.26" y1="3364.21" x2="47.22" y2="3393.54" gradientTransform="translate(0 -3315.73)" gradientUnits="userSpaceOnUse"><stop offset="0" stop-color="#feeeb6"/><stop offset="1" stop-color="#b49248"/></linearGradient><linearGradient id="linear-gradient-2" x1="30.12" y1="3308.32" x2="93.76" y2="3460.13" xlink:href="#linear-gradient"/><linearGradient id="linear-gradient-3" x1="96.61" y1="3333.92" x2="127.42" y2="3451.31" xlink:href="#linear-gradient"/><linearGradient id="linear-gradient-4" x1="50.91" y1="3335.42" x2="107.14" y2="3403.05" xlink:href="#linear-gradient"/></defs><path class="cls-1" d="M0,0H150V150H0Z"/><path class="cls-2" d="M31.32,23.78H1V25C9.12,30.61,13,35,18.13,45.87l39.26,83.95H75Z"/><path class="cls-3" d="M75,129.82l1.37-34-23-49.54C48.24,35.45,49.57,30,58.16,25.07V23.78H28.23Z"/><path class="cls-4" d="M118.78,23.78h30.27V25C140.87,30.61,137,35,131.87,45.87L92.61,129.82H74.94Z"/><path class="cls-5" d="M75,129.82V92.75L96.67,46.28c5.09-10.83,3.76-16.33-4.83-21.21V23.78h29.93Z"/></svg>